<?xml version="1.0" standalone="no"?>
<!DOCTYPE svg PUBLIC "-//W3C//DTD SVG 20010904//EN"
 "http://www.w3.org/TR/2001/REC-SVG-20010904/DTD/svg10.dtd">
<svg version="1.0" xmlns="http://www.w3.org/2000/svg"
 width="512.000000pt" height="512.000000pt" viewBox="0 0 512.000000 512.000000"
 preserveAspectRatio="xMidYMid meet">
<metadata>
Created by potrace 1.11, written by Peter Selinger 2001-2013
</metadata>
<g transform="translate(0.000000,512.000000) scale(0.100000,-0.100000)"
fill="#000000" stroke="none">
<path d="M1420 4331 c0 -5 -35 -12 -77 -15 -201 -16 -451 -69 -683 -146 -173
-57 -279 -102 -420 -177 -58 -31 -119 -64 -137 -72 -22 -11 -32 -23 -33 -38 0
-13 6 -23 13 -23 6 0 34 -58 61 -128 28 -70 62 -154 77 -187 15 -33 43 -96 62
-140 45 -101 208 -421 242 -474 14 -22 25 -43 25 -46 0 -3 40 -70 89 -149 99
-159 262 -390 380 -536 118 -148 423 -453 493 -494 33 -20 62 -36 65 -36 3 0
17 -8 31 -19 23 -15 96 -56 212 -117 88 -46 262 -108 385 -135 37 -9 117 -14
205 -13 164 0 248 18 380 80 87 41 240 140 240 156 0 25 -263 322 -479 541
-365 370 -719 663 -1126 932 -173 114 -406 258 -447 275 -33 14 -63 39 -55 46
8 8 370 -83 467 -117 495 -174 936 -431 1355 -789 140 -119 424 -403 541 -540
113 -132 258 -323 356 -465 74 -107 198 -302 198 -310 0 -3 13 -26 29 -52 57
-93 92 -160 177 -333 87 -177 98 -201 108 -232 8 -26 25 -22 32 9 12 46 -5
304 -26 401 -20 89 -53 206 -71 247 -5 11 -18 45 -29 75 -70 183 -248 482
-428 722 -128 169 -118 134 -77 283 69 252 91 560 54 765 -43 237 -85 348
-196 519 -76 117 -259 300 -383 381 -274 180 -650 308 -987 335 -46 4 -83 11
-83 16 0 5 -118 9 -270 9 -157 0 -270 -4 -270 -9z"/>
<path d="M4816 3993 c-11 -3 -71 -22 -135 -43 -230 -74 -394 -170 -537 -314
-143 -144 -221 -285 -274 -495 -61 -243 -41 -410 79 -636 26 -49 81 -142 123
-205 69 -106 84 -134 117 -213 17 -42 13 -137 -8 -200 -19 -59 -16 -70 11 -39
65 73 108 258 157 667 71 588 127 815 244 987 64 95 82 76 82 -85 0 -141 -34
-341 -86 -504 -31 -100 -115 -443 -134 -552 -18 -101 -18 -104 0 -117 37 -27
169 -10 241 32 112 64 212 234 253 429 31 153 36 211 36 460 0 250 -6 326 -44
570 -13 79 -33 177 -46 220 -12 41 -32 51 -79 38z"/>
</g>
</svg>
